<svg width="400" height="300" viewBox="0 0 400 300" fill="none" xmlns="http://www.w3.org/2000/svg">
<path d="M286.922 26.7509H116.516C111.663 26.7509 107.73 31.1374 107.73 36.5485V263.416C107.73 268.827 111.663 273.214 116.516 273.214H286.922C291.775 273.214 295.708 268.827 295.708 263.416V36.5485C295.708 31.1374 291.775 26.7509 286.922 26.7509Z" fill="white"/>
<path d="M286.938 275H116.516C113.768 274.991 111.134 273.769 109.191 271.602C107.248 269.435 106.152 266.498 106.144 263.434V36.5485C106.152 33.4855 107.248 30.5508 109.192 28.3866C111.136 26.2223 113.769 25.0047 116.516 25H286.938C289.685 25.0047 292.318 26.2223 294.262 28.3866C296.206 30.5508 297.302 33.4855 297.31 36.5485V263.434C297.302 266.498 296.206 269.435 294.263 271.602C292.32 273.769 289.686 274.991 286.938 275ZM116.516 28.5371C114.609 28.5371 112.78 29.3806 111.43 30.8825C110.08 32.3844 109.32 34.4221 109.316 36.5485V263.434C109.32 265.562 110.08 267.601 111.429 269.106C112.779 270.611 114.608 271.458 116.516 271.463H286.938C288.846 271.458 290.675 270.611 292.025 269.106C293.374 267.601 294.134 265.562 294.138 263.434V36.5485C294.134 34.4221 293.374 32.3844 292.024 30.8825C290.674 29.3806 288.845 28.5371 286.938 28.5371H116.516Z" fill="#093F68"/>
<path d="M116.516 26.7509H286.938C289.268 26.7509 291.503 27.7831 293.151 29.6205C294.798 31.4579 295.724 33.95 295.724 36.5485V53.6503H107.73V36.5485C107.73 33.95 108.656 31.4579 110.303 29.6205C111.951 27.7831 114.186 26.7509 116.516 26.7509Z" fill="#F5F5DC"/>
<path d="M295.724 55.4365H107.73C107.309 55.4365 106.906 55.2501 106.608 54.9185C106.311 54.5868 106.144 54.137 106.144 53.6679V36.5485C106.152 33.4855 107.248 30.5508 109.192 28.3866C111.136 26.2223 113.769 25.0047 116.516 25H286.938C289.685 25.0047 292.318 26.2223 294.262 28.3866C296.206 30.5508 297.302 33.4855 297.31 36.5485V53.6679C297.31 53.9002 297.269 54.1302 297.189 54.3447C297.11 54.5593 296.993 54.7543 296.845 54.9185C296.698 55.0827 296.523 55.213 296.331 55.3019C296.139 55.3907 295.932 55.4365 295.724 55.4365ZM109.316 51.8994H294.138V36.5485C294.134 34.4221 293.374 32.3844 292.024 30.8825C290.674 29.3806 288.845 28.5371 286.938 28.5371H116.516C114.609 28.5371 112.78 29.3806 111.43 30.8825C110.08 32.3844 109.32 34.4221 109.316 36.5485V51.8994Z" fill="#093F68"/>
<path d="M123.7 43.9764C125.855 43.9764 127.601 42.0286 127.601 39.6258C127.601 37.223 125.855 35.2752 123.7 35.2752C121.545 35.2752 119.799 37.223 119.799 39.6258C119.799 42.0286 121.545 43.9764 123.7 43.9764Z" fill="#093F68"/>
<path d="M134.548 43.9764C136.702 43.9764 138.449 42.0286 138.449 39.6258C138.449 37.223 136.702 35.2752 134.548 35.2752C132.393 35.2752 130.646 37.223 130.646 39.6258C130.646 42.0286 132.393 43.9764 134.548 43.9764Z" fill="#093F68"/>
<path d="M145.379 43.9764C147.534 43.9764 149.281 42.0286 149.281 39.6258C149.281 37.223 147.534 35.2752 145.379 35.2752C143.225 35.2752 141.478 37.223 141.478 39.6258C141.478 42.0286 143.225 43.9764 145.379 43.9764Z" fill="#093F68"/>
<path d="M171.024 110.597H83.275C81.1554 110.597 79.4371 112.513 79.4371 114.877V142.908C79.4371 145.272 81.1554 147.188 83.275 147.188H171.024C173.143 147.188 174.862 145.272 174.862 142.908V114.877C174.862 112.513 173.143 110.597 171.024 110.597Z" fill="#FFBC0E"/>
<path d="M171.008 148.904H83.2751C81.8544 148.88 80.4982 148.238 79.4964 147.115C78.4947 145.991 77.927 144.475 77.9147 142.891V114.877C77.9147 113.271 78.4857 111.731 79.5024 110.594C80.5191 109.457 81.8986 108.816 83.3386 108.811H171.008C172.448 108.816 173.827 109.457 174.844 110.594C175.861 111.731 176.432 113.271 176.432 114.877V142.891C176.419 144.487 175.843 146.014 174.827 147.139C173.812 148.265 172.44 148.899 171.008 148.904ZM83.2751 112.295C82.6764 112.3 82.1036 112.568 81.6817 113.042C81.2599 113.516 81.0231 114.156 81.0231 114.824V142.891C81.0231 143.558 81.2599 144.199 81.6817 144.673C82.1036 145.146 82.6764 145.415 83.2751 145.42H171.008C171.607 145.415 172.179 145.146 172.601 144.673C173.023 144.199 173.26 143.558 173.26 142.891V114.877C173.26 114.209 173.023 113.569 172.601 113.095C172.179 112.621 171.607 112.353 171.008 112.348L83.2751 112.295Z" fill="#093F68"/>
<path d="M89.9201 128.884C89.9153 127.672 90.1199 126.472 90.5227 125.347C90.9006 124.314 91.4678 123.38 92.1879 122.605C92.9148 121.826 93.7789 121.224 94.7254 120.837C96.806 120.035 99.0677 120.035 101.148 120.837C102.095 121.224 102.959 121.826 103.686 122.605C104.406 123.38 104.973 124.314 105.351 125.347C106.154 127.668 106.154 130.24 105.351 132.562C104.981 133.6 104.413 134.536 103.686 135.303C102.959 136.083 102.095 136.685 101.148 137.072C99.0677 137.874 96.806 137.874 94.7254 137.072C93.7789 136.685 92.9148 136.083 92.1879 135.303C91.4607 134.536 90.8924 133.6 90.5227 132.562C90.1036 131.393 89.8987 130.142 89.9201 128.884ZM93.314 128.884C93.3054 129.614 93.4183 130.339 93.647 131.024C93.8368 131.684 94.1565 132.288 94.5827 132.792C94.991 133.277 95.4888 133.657 96.0417 133.906C97.2584 134.449 98.6154 134.449 99.8321 133.906C100.385 133.657 100.883 133.277 101.291 132.792C101.717 132.288 102.037 131.684 102.227 131.024C102.671 129.646 102.671 128.139 102.227 126.761C102.03 126.105 101.712 125.502 101.291 124.993C100.883 124.508 100.385 124.128 99.8321 123.879C98.6113 123.361 97.2624 123.361 96.0417 123.879C95.4888 124.128 94.991 124.508 94.5827 124.993C94.1622 125.502 93.8433 126.105 93.647 126.761C93.4209 127.44 93.3081 128.16 93.314 128.884Z" fill="#093F68"/>
<path d="M109.474 128.884C109.47 127.672 109.674 126.472 110.077 125.347C110.455 124.314 111.022 123.38 111.742 122.605C112.469 121.826 113.333 121.224 114.28 120.837C116.336 120.055 118.567 120.055 120.623 120.837C121.57 121.224 122.434 121.826 123.161 122.605C123.852 123.388 124.392 124.321 124.747 125.347C125.55 127.669 125.55 130.24 124.747 132.562C124.4 133.592 123.86 134.527 123.161 135.303C122.434 136.083 121.57 136.685 120.623 137.072C118.567 137.854 116.336 137.854 114.28 137.072C113.333 136.685 112.469 136.083 111.742 135.303C111.015 134.536 110.447 133.6 110.077 132.562C109.658 131.393 109.453 130.142 109.474 128.884ZM112.868 128.884C112.86 129.614 112.973 130.339 113.201 131.024C113.391 131.684 113.711 132.288 114.137 132.792C114.545 133.277 115.043 133.657 115.596 133.906C116.194 134.184 116.836 134.322 117.483 134.313C118.136 134.32 118.783 134.182 119.386 133.906C119.939 133.657 120.437 133.277 120.845 132.792C121.272 132.288 121.591 131.684 121.781 131.024C122.204 129.642 122.204 128.143 121.781 126.761C121.585 126.105 121.266 125.502 120.845 124.993C120.437 124.508 119.939 124.128 119.386 123.879C118.782 123.609 118.135 123.477 117.483 123.49C116.837 123.475 116.195 123.607 115.596 123.879C115.043 124.128 114.545 124.508 114.137 124.993C113.717 125.502 113.398 126.105 113.201 126.761C112.954 127.436 112.819 128.155 112.805 128.884H112.868Z" fill="#093F68"/>
<path d="M129.822 120.607H135.341C136.075 120.6 136.809 120.677 137.529 120.837C138.169 120.973 138.778 121.249 139.321 121.65C139.842 122.035 140.263 122.566 140.542 123.189C140.862 123.952 141.014 124.788 140.986 125.63C141.008 126.467 140.867 127.299 140.574 128.07C140.315 128.696 139.916 129.238 139.416 129.644C138.888 130.044 138.296 130.326 137.672 130.475C136.952 130.638 136.218 130.715 135.483 130.705H133.105V137.178H129.822V120.607ZM133.105 127.681H135.277C135.565 127.683 135.853 127.647 136.134 127.575C136.391 127.523 136.638 127.421 136.863 127.274C137.083 127.123 137.264 126.909 137.386 126.655C137.538 126.36 137.609 126.022 137.593 125.683C137.605 125.323 137.511 124.968 137.323 124.675C137.151 124.414 136.921 124.207 136.657 124.073C136.367 123.925 136.055 123.835 135.737 123.808H134.786H133.105V127.681Z" fill="#093F68"/>
<path d="M152.453 124.657C152.172 124.27 151.798 123.981 151.374 123.826C150.962 123.658 150.528 123.569 150.09 123.56C149.839 123.556 149.588 123.585 149.344 123.649C149.096 123.706 148.855 123.801 148.631 123.932C148.42 124.065 148.236 124.246 148.091 124.462C147.95 124.697 147.878 124.976 147.885 125.258C147.873 125.483 147.913 125.707 148.002 125.908C148.091 126.11 148.226 126.282 148.393 126.408C148.78 126.708 149.208 126.935 149.661 127.08C150.169 127.274 150.708 127.469 151.247 127.646C151.802 127.84 152.335 128.107 152.833 128.442C153.341 128.793 153.774 129.264 154.102 129.821C154.466 130.523 154.642 131.327 154.609 132.138C154.627 132.969 154.47 133.793 154.15 134.543C153.861 135.233 153.432 135.839 152.897 136.312C152.353 136.776 151.733 137.118 151.073 137.32C149.47 137.793 147.779 137.738 146.204 137.16C145.346 136.804 144.56 136.263 143.889 135.569L146.22 132.704C146.555 133.198 146.99 133.598 147.489 133.871C147.983 134.137 148.525 134.276 149.075 134.278C149.347 134.277 149.618 134.242 149.883 134.172C150.139 134.106 150.385 133.998 150.613 133.853C150.821 133.723 151 133.541 151.136 133.323C151.271 133.091 151.342 132.821 151.342 132.545C151.35 132.314 151.306 132.086 151.214 131.879C151.123 131.672 150.987 131.494 150.819 131.36C150.427 131.042 149.994 130.791 149.535 130.617L147.853 130.016C147.266 129.821 146.701 129.548 146.172 129.202C145.66 128.858 145.222 128.393 144.888 127.84C144.514 127.174 144.331 126.397 144.364 125.612C144.349 124.802 144.512 124 144.84 123.277C145.147 122.62 145.58 122.046 146.109 121.597C146.648 121.131 147.262 120.783 147.917 120.572C148.607 120.344 149.323 120.231 150.042 120.236C150.864 120.235 151.682 120.373 152.468 120.642C153.253 120.911 153.978 121.363 154.594 121.969L152.453 124.657Z" fill="#093F68"/>
<path d="M160.493 135.162C160.497 134.87 160.551 134.582 160.652 134.313C160.748 134.055 160.888 133.821 161.065 133.624C161.242 133.427 161.452 133.27 161.683 133.164C161.919 133.057 162.173 133.002 162.428 133.004C162.689 133.002 162.947 133.056 163.189 133.164C163.421 133.268 163.632 133.425 163.808 133.623C163.981 133.824 164.12 134.058 164.22 134.313C164.316 134.583 164.365 134.871 164.363 135.162C164.365 135.447 164.316 135.729 164.22 135.993C164.12 136.248 163.981 136.482 163.808 136.683C163.632 136.882 163.421 137.038 163.189 137.143C162.947 137.25 162.689 137.304 162.428 137.302C162.173 137.304 161.919 137.25 161.683 137.143C161.452 137.036 161.242 136.88 161.065 136.682C160.888 136.485 160.748 136.251 160.652 135.993C160.551 135.73 160.497 135.448 160.493 135.162ZM163.998 131.625H160.826V120.607H163.998V131.625Z" fill="#093F68"/>
<path d="M174.751 244.74H81.0866C80.2571 244.742 79.4434 244.487 78.7358 244.005C78.0282 243.522 77.4545 242.83 77.0782 242.005C76.702 241.181 76.538 240.256 76.6045 239.334C76.671 238.412 76.9653 237.529 77.4548 236.782L124.303 165.121C124.719 164.485 125.265 163.968 125.894 163.611C126.524 163.255 127.22 163.069 127.927 163.069C128.633 163.069 129.329 163.255 129.959 163.611C130.588 163.968 131.134 164.485 131.55 165.121L178.398 236.782C178.889 237.53 179.183 238.415 179.249 239.339C179.315 240.262 179.149 241.188 178.771 242.013C178.393 242.838 177.817 243.53 177.107 244.012C176.397 244.493 175.581 244.745 174.751 244.74Z" fill="#FFBC0E"/>
<path d="M174.751 246.509H81.0865C79.9638 246.511 78.8624 246.167 77.9047 245.514C76.9469 244.86 76.1703 243.924 75.661 242.808C75.1517 241.692 74.9296 240.441 75.0195 239.193C75.1094 237.945 75.5077 236.749 76.1702 235.738L123.018 164.077C123.584 163.218 124.323 162.52 125.176 162.038C126.028 161.557 126.971 161.306 127.926 161.306C128.882 161.306 129.825 161.557 130.677 162.038C131.53 162.52 132.269 163.218 132.835 164.077L179.683 235.738C180.345 236.749 180.744 237.945 180.833 239.193C180.923 240.441 180.701 241.692 180.192 242.808C179.683 243.924 178.906 244.86 177.948 245.514C176.991 246.167 175.889 246.511 174.766 246.509H174.751ZM127.919 164.82C127.46 164.812 127.007 164.929 126.598 165.16C126.189 165.391 125.837 165.73 125.571 166.147L78.7235 237.808C78.407 238.29 78.2167 238.862 78.1736 239.458C78.1305 240.054 78.2364 240.652 78.4796 241.185C78.7227 241.718 79.0935 242.165 79.5509 242.478C80.0083 242.79 80.5344 242.955 81.0707 242.954H174.751C175.287 242.955 175.813 242.79 176.27 242.478C176.728 242.165 177.099 241.718 177.342 241.185C177.585 240.652 177.691 240.054 177.648 239.458C177.605 238.862 177.414 238.29 177.098 237.808L130.25 166.164C129.985 165.75 129.635 165.412 129.23 165.178C128.825 164.944 128.375 164.821 127.919 164.82Z" fill="#093F68"/>
<path d="M323.493 244.139H191.276V115.514L210.386 89.6753H323.493V244.139Z" fill="#F5F5DC"/>
<path d="M323.493 245.908H191.276C190.855 245.908 190.452 245.721 190.154 245.39C189.857 245.058 189.69 244.608 189.69 244.139V115.514C189.689 115.1 189.818 114.7 190.055 114.382L209.086 88.5435C209.235 88.3438 209.421 88.1833 209.632 88.0732C209.844 87.9632 210.074 87.9064 210.307 87.9068H323.414C323.835 87.9068 324.238 88.0931 324.536 88.4248C324.833 88.7565 325 89.2063 325 89.6753V244.139C325.001 244.593 324.844 245.03 324.564 245.359C324.283 245.689 323.9 245.885 323.493 245.908ZM192.862 242.371H321.907V91.4439H211.131L192.862 116.203V242.371Z" fill="#093F68"/>
<path d="M218.205 158.118C217.89 158.12 217.581 158.017 217.319 157.823C217.056 157.629 216.851 157.352 216.731 157.027C216.61 156.703 216.578 156.346 216.64 156.001C216.702 155.657 216.855 155.341 217.079 155.093L237.331 132.403C237.628 132.074 238.03 131.889 238.449 131.889C238.868 131.889 239.27 132.074 239.567 132.403C239.715 132.567 239.833 132.763 239.914 132.979C239.995 133.194 240.036 133.425 240.036 133.659C240.036 133.892 239.995 134.123 239.914 134.339C239.833 134.554 239.715 134.75 239.567 134.914L219.331 157.605C219.182 157.769 219.007 157.898 218.813 157.986C218.62 158.074 218.413 158.119 218.205 158.118Z" fill="#093F68"/>
<path d="M238.457 158.118C238.247 158.117 238.039 158.069 237.846 157.978C237.653 157.887 237.478 157.754 237.331 157.587L217.079 134.897C216.932 134.732 216.816 134.536 216.736 134.321C216.657 134.106 216.617 133.876 216.618 133.644C216.619 133.411 216.66 133.181 216.741 132.967C216.821 132.753 216.939 132.558 217.087 132.394C217.234 132.23 217.41 132.101 217.603 132.013C217.795 131.924 218.002 131.88 218.21 131.88C218.419 131.881 218.625 131.928 218.817 132.017C219.009 132.107 219.184 132.238 219.331 132.403L239.567 155.093C239.862 155.425 240.028 155.873 240.028 156.34C240.028 156.807 239.862 157.256 239.567 157.587C239.274 157.92 238.875 158.111 238.457 158.118Z" fill="#093F68"/>
<path d="M280.547 158.118C280.129 158.111 279.73 157.92 279.437 157.587C279.141 157.256 278.976 156.807 278.976 156.34C278.976 155.873 279.141 155.425 279.437 155.093L299.689 132.403C299.836 132.238 300.01 132.107 300.202 132.017C300.395 131.928 300.601 131.881 300.809 131.88C301.018 131.88 301.224 131.924 301.417 132.013C301.61 132.101 301.785 132.23 301.933 132.394C302.081 132.558 302.198 132.753 302.279 132.967C302.359 133.181 302.401 133.411 302.402 133.644C302.402 133.876 302.362 134.106 302.283 134.321C302.204 134.536 302.088 134.732 301.941 134.897L281.689 157.587C281.54 157.756 281.362 157.89 281.166 157.982C280.97 158.073 280.759 158.119 280.547 158.118Z" fill="#093F68"/>
<path d="M300.799 158.118C300.589 158.117 300.382 158.069 300.188 157.978C299.995 157.887 299.82 157.754 299.673 157.587L279.421 134.897C279.272 134.732 279.154 134.537 279.074 134.321C278.993 134.106 278.952 133.874 278.952 133.641C278.952 133.408 278.993 133.176 279.074 132.961C279.154 132.745 279.272 132.55 279.421 132.385C279.718 132.056 280.12 131.871 280.539 131.871C280.958 131.871 281.36 132.056 281.657 132.385L301.909 155.076C302.133 155.323 302.285 155.639 302.347 155.984C302.409 156.328 302.378 156.685 302.257 157.01C302.136 157.334 301.932 157.611 301.669 157.805C301.407 157.999 301.098 158.102 300.783 158.1L300.799 158.118Z" fill="#093F68"/>
<path d="M248.638 181.975H266.638V199.66C266.638 202.32 265.691 204.87 264.005 206.751C262.318 208.632 260.031 209.688 257.646 209.688C255.261 209.688 252.974 208.632 251.288 206.751C249.602 204.87 248.654 202.32 248.654 199.66V181.975H248.638Z" fill="#F56132"/>
<path d="M257.63 211.527C254.826 211.523 252.138 210.278 250.155 208.067C248.172 205.856 247.057 202.858 247.052 199.731V182.046C247.052 181.577 247.219 181.127 247.517 180.795C247.814 180.464 248.218 180.277 248.638 180.277H266.638C267.059 180.277 267.462 180.464 267.76 180.795C268.057 181.127 268.224 181.577 268.224 182.046V199.731C268.22 202.861 267.102 205.862 265.116 208.073C263.13 210.285 260.437 211.527 257.63 211.527ZM250.224 183.744V199.66C250.224 201.851 251.004 203.952 252.393 205.5C253.782 207.049 255.666 207.919 257.63 207.919C259.595 207.919 261.478 207.049 262.867 205.5C264.256 203.952 265.037 201.851 265.037 199.66V183.744H250.224Z" fill="#093F68"/>
<path d="M257.63 197.627C257.21 197.627 256.806 197.44 256.509 197.109C256.212 196.777 256.045 196.327 256.045 195.858V181.975C256.045 181.506 256.212 181.056 256.509 180.725C256.806 180.393 257.21 180.207 257.63 180.207C258.051 180.207 258.454 180.393 258.752 180.725C259.049 181.056 259.216 181.506 259.216 181.975V195.858C259.216 196.09 259.175 196.32 259.096 196.535C259.016 196.749 258.899 196.944 258.752 197.109C258.605 197.273 258.43 197.403 258.237 197.492C258.045 197.581 257.839 197.627 257.63 197.627Z" fill="#093F68"/>
<path d="M300.799 183.744H218.205C217.784 183.744 217.381 183.557 217.083 183.226C216.786 182.894 216.619 182.444 216.619 181.975C216.619 181.506 216.786 181.056 217.083 180.725C217.381 180.393 217.784 180.207 218.205 180.207H300.799C301.22 180.207 301.623 180.393 301.92 180.725C302.218 181.056 302.385 181.506 302.385 181.975C302.385 182.444 302.218 182.894 301.92 183.226C301.623 183.557 301.22 183.744 300.799 183.744Z" fill="#093F68"/>
<path d="M201.204 73.4402H123.002C122.582 73.4402 122.178 73.2539 121.881 72.9222C121.583 72.5906 121.416 72.1407 121.416 71.6717C121.416 71.2026 121.583 70.7528 121.881 70.4211C122.178 70.0895 122.582 69.9031 123.002 69.9031H201.204C201.624 69.9031 202.028 70.0895 202.325 70.4211C202.622 70.7528 202.79 71.2026 202.79 71.6717C202.79 72.1407 202.622 72.5906 202.325 72.9222C202.028 73.2539 201.624 73.4402 201.204 73.4402Z" fill="#DFEAEF"/>
<path d="M191.276 115.514H210.18L210.386 89.6753L191.276 115.514Z" fill="white"/>
<path d="M210.18 117.282H191.276C190.972 117.283 190.675 117.187 190.42 117.005C190.164 116.823 189.96 116.563 189.833 116.256C189.707 115.952 189.661 115.615 189.7 115.283C189.739 114.951 189.862 114.639 190.055 114.382L209.086 88.5435C209.294 88.2631 209.575 88.0612 209.89 87.9655C210.205 87.8698 210.539 87.8849 210.846 88.0087C211.153 88.1325 211.418 88.3591 211.606 88.6574C211.793 88.9556 211.893 89.3112 211.893 89.6753L211.687 115.531C211.683 115.982 211.525 116.415 211.245 116.74C210.965 117.066 210.584 117.26 210.18 117.282ZM194.638 113.745H208.61L208.768 94.6449L194.638 113.745Z" fill="#093F68"/>
<path d="M234.016 73.4402H218.157C217.736 73.4402 217.333 73.2539 217.036 72.9222C216.738 72.5906 216.571 72.1407 216.571 71.6717C216.571 71.2026 216.738 70.7528 217.036 70.4211C217.333 70.0895 217.736 69.9031 218.157 69.9031H234.016C234.437 69.9031 234.84 70.0895 235.138 70.4211C235.435 70.7528 235.602 71.2026 235.602 71.6717C235.602 72.1407 235.435 72.5906 235.138 72.9222C234.84 73.2539 234.437 73.4402 234.016 73.4402Z" fill="#DFEAEF"/>
<path d="M171.214 95.3169H123.637C123.216 95.3169 122.813 95.1306 122.515 94.7989C122.218 94.4673 122.051 94.0174 122.051 93.5484C122.051 93.0793 122.218 92.6295 122.515 92.2978C122.813 91.9662 123.216 91.7798 123.637 91.7798H171.214C171.635 91.7798 172.038 91.9662 172.335 92.2978C172.633 92.6295 172.8 93.0793 172.8 93.5484C172.8 94.0174 172.633 94.4673 172.335 94.7989C172.038 95.1306 171.635 95.3169 171.214 95.3169Z" fill="#DFEAEF"/>
<path d="M171.214 172.177H154.752C154.332 172.177 153.928 171.991 153.631 171.659C153.333 171.328 153.166 170.878 153.166 170.409C153.166 169.94 153.333 169.49 153.631 169.158C153.928 168.827 154.332 168.64 154.752 168.64H171.214C171.635 168.64 172.038 168.827 172.335 169.158C172.633 169.49 172.8 169.94 172.8 170.409C172.8 170.878 172.633 171.328 172.335 171.659C172.038 171.991 171.635 172.177 171.214 172.177Z" fill="#DFEAEF"/>
<path d="M171.214 190.676H160.493C160.073 190.676 159.669 190.49 159.372 190.158C159.074 189.827 158.907 189.377 158.907 188.908C158.907 188.439 159.074 187.989 159.372 187.657C159.669 187.326 160.073 187.139 160.493 187.139H171.214C171.635 187.139 172.038 187.326 172.335 187.657C172.633 187.989 172.8 188.439 172.8 188.908C172.8 189.377 172.633 189.827 172.335 190.158C172.038 190.49 171.635 190.676 171.214 190.676Z" fill="#DFEAEF"/>
<path d="M275.377 73.4402H248.638C248.218 73.4402 247.814 73.2539 247.517 72.9222C247.219 72.5906 247.052 72.1407 247.052 71.6717C247.052 71.2026 247.219 70.7528 247.517 70.4211C247.814 70.0895 248.218 69.9031 248.638 69.9031H275.377C275.797 69.9031 276.201 70.0895 276.498 70.4211C276.796 70.7528 276.963 71.2026 276.963 71.6717C276.963 72.1407 276.796 72.5906 276.498 72.9222C276.201 73.2539 275.797 73.4402 275.377 73.4402Z" fill="#DFEAEF"/>
<path d="M113.139 225.309C111.813 225.309 110.635 225.069 109.605 224.589C108.575 224.11 107.762 223.45 107.164 222.61C106.572 221.769 106.264 220.805 106.241 219.716H110.502C110.537 220.384 110.81 220.923 111.319 221.331C111.828 221.734 112.434 221.935 113.139 221.935C113.689 221.935 114.177 221.814 114.604 221.571C115.03 221.328 115.364 220.988 115.607 220.55C115.849 220.106 115.968 219.597 115.962 219.023C115.968 218.437 115.846 217.925 115.598 217.487C115.355 217.049 115.018 216.709 114.586 216.466C114.16 216.218 113.668 216.093 113.112 216.093C112.585 216.087 112.085 216.203 111.612 216.44C111.144 216.676 110.789 216.999 110.546 217.407L106.667 216.679L107.457 206.878H119.122V210.42H111.07L110.653 214.708H110.759C111.061 214.205 111.547 213.791 112.215 213.466C112.89 213.134 113.657 212.968 114.515 212.968C115.604 212.968 116.574 213.223 117.427 213.732C118.285 214.235 118.96 214.933 119.451 215.827C119.948 216.721 120.197 217.745 120.197 218.899C120.197 220.148 119.901 221.254 119.309 222.219C118.723 223.184 117.9 223.941 116.841 224.492C115.787 225.036 114.553 225.309 113.139 225.309ZM130.129 225.504C128.542 225.504 127.175 225.128 126.027 224.376C124.879 223.619 123.994 222.533 123.373 221.118C122.751 219.698 122.443 217.99 122.449 215.996C122.455 214.001 122.766 212.308 123.381 210.918C124.003 209.521 124.885 208.458 126.027 207.73C127.175 206.997 128.542 206.63 130.129 206.63C131.715 206.63 133.082 206.997 134.23 207.73C135.384 208.458 136.272 209.521 136.894 210.918C137.515 212.314 137.823 214.007 137.817 215.996C137.817 217.996 137.506 219.707 136.885 221.127C136.263 222.548 135.378 223.634 134.23 224.385C133.088 225.131 131.721 225.504 130.129 225.504ZM130.129 221.908C131.076 221.908 131.842 221.426 132.428 220.461C133.014 219.491 133.304 218.002 133.298 215.996C133.298 214.682 133.165 213.599 132.899 212.746C132.632 211.888 132.262 211.249 131.789 210.829C131.315 210.409 130.762 210.198 130.129 210.198C129.188 210.198 128.427 210.675 127.847 211.628C127.267 212.575 126.974 214.031 126.968 215.996C126.962 217.327 127.089 218.431 127.35 219.307C127.616 220.183 127.989 220.837 128.468 221.269C128.948 221.695 129.501 221.908 130.129 221.908ZM148.741 206.878V225.06H144.355V210.98H144.249L140.183 213.466V209.666L144.666 206.878H148.741Z" fill="#093F68"/>
</svg>
